<svg width="191" height="45" viewBox="0 0 191 45" fill="none" xmlns="http://www.w3.org/2000/svg">
<path d="M-0.000195291 14.6V10.1H3.5498V2.1H10.1998V10.1H14.5998V14.6H10.1998V28.2C10.1998 30.1 11.2498 30.75 12.7498 30.75C13.5998 30.75 14.7498 30.7 14.7498 30.7V35.7C14.7498 35.7 13.1998 35.8 10.4998 35.8C7.19981 35.8 3.5498 34.5 3.5498 29.65V14.6H-0.000195291ZM34.4955 35.75C34.0955 35.25 33.8455 34.05 33.6955 32.9H33.5955C32.2955 34.85 30.4455 36.35 26.0455 36.35C20.7955 36.35 17.0955 33.6 17.0955 28.5C17.0955 22.85 21.6955 21.05 27.3955 20.25C31.6455 19.65 33.5955 19.3 33.5955 17.35C33.5955 15.5 32.1455 14.3 29.2955 14.3C26.0955 14.3 24.5455 15.45 24.3455 17.9H18.2955C18.4955 13.4 21.8455 9.45 29.3455 9.45C37.0455 9.45 40.1455 12.9 40.1455 18.9V31.95C40.1455 33.9 40.4455 35.05 41.0455 35.5V35.75H34.4955ZM27.6955 31.6C31.5955 31.6 33.7455 29.2 33.7455 26.7V22.85C32.5455 23.55 30.6955 23.95 28.9955 24.35C25.4455 25.15 23.6955 25.95 23.6955 28.35C23.6955 30.75 25.2955 31.6 27.6955 31.6ZM44.5686 35.75V-1.66893e-06H51.3686V35.75H44.5686ZM55.9455 35.75V-1.66893e-06H62.7455V35.75H55.9455ZM67.7725 44.15V38.8H70.1725C72.8725 38.8 73.9725 37.4 73.9725 35.3C73.9725 33.9 73.4725 32.25 72.0225 28.35L65.1225 10.1H72.2725L76.0725 21.65C76.8725 24 77.7225 27.25 77.7225 27.25H77.8225C77.8225 27.25 78.5225 24 79.3225 21.65L82.9225 10.1H89.7725L80.8225 36.4C78.8725 42.1 76.9725 44.15 71.7725 44.15H67.7725ZM101.188 36.5C94.7377 36.5 90.3377 31.25 90.3377 22.95C90.3377 14.95 94.8877 9.4 101.288 9.4C104.888 9.4 107.138 11.05 108.538 13.2H108.688V-1.66893e-06H115.488V35.75H108.938V32.4H108.838C107.338 34.85 104.788 36.5 101.188 36.5ZM102.688 30.8C106.738 30.8 108.838 27.8 108.838 23.1C108.838 18.2 107.238 14.9 102.888 14.9C99.1377 14.9 97.2377 18.2 97.2377 22.95C97.2377 27.9 99.1877 30.8 102.688 30.8ZM126.458 10.1V14.2H126.608C128.158 11.3 129.908 9.8 132.908 9.8C133.658 9.8 134.108 9.85 134.508 10V15.95H134.358C129.908 15.5 126.708 17.85 126.708 23.25V35.75H119.908V10.1H126.458ZM148.855 36.5C140.905 36.5 135.455 30.6 135.455 22.95C135.455 15.3 140.905 9.4 148.855 9.4C156.805 9.4 162.255 15.3 162.255 22.95C162.255 30.6 156.805 36.5 148.855 36.5ZM148.855 31.3C153.005 31.3 155.355 27.95 155.355 22.95C155.355 17.95 153.005 14.55 148.855 14.55C144.655 14.55 142.355 17.95 142.355 22.95C142.355 27.95 144.655 31.3 148.855 31.3ZM165.416 44.15V10.1H171.966V13.3H172.116C173.766 11.05 176.166 9.4 179.666 9.4C186.466 9.4 190.816 14.95 190.816 22.95C190.816 31.25 186.316 36.5 179.716 36.5C176.116 36.5 173.766 35.05 172.316 32.85H172.216V44.15H165.416ZM178.266 30.85C181.716 30.85 183.916 28 183.916 23.15C183.916 18.3 182.216 14.9 178.016 14.9C173.766 14.9 172.066 18.55 172.066 23.15C172.066 27.8 174.216 30.85 178.266 30.85Z" fill="currentColor"/>
</svg>
